<svg xmlns="http://www.w3.org/2000/svg" width="20" height="20" viewBox="0 0 20 20" fill="none">
  <path d="M12.4951 10L19.4782 3.01684C19.8096 2.68601 19.9961 2.23707 19.9965 1.76879C19.9969 1.3005 19.8113 0.851233 19.4804 0.519814C19.1496 0.188395 18.7007 0.00197318 18.2324 0.00155962C17.7641 0.00114607 17.3148 0.186774 16.9834 0.517609L10.0002 7.50077L3.01709 0.517609C2.68567 0.18619 2.23617 0 1.76747 0C1.29877 0 0.849272 0.18619 0.517853 0.517609C0.186434 0.849028 0.000244141 1.29853 0.000244141 1.76723C0.000244141 2.23592 0.186434 2.68542 0.517853 3.01684L7.50101 10L0.517853 16.9832C0.186434 17.3146 0.000244141 17.7641 0.000244141 18.2328C0.000244141 18.7015 0.186434 19.151 0.517853 19.4824C0.849272 19.8138 1.29877 20 1.76747 20C2.23617 20 2.68567 19.8138 3.01709 19.4824L10.0002 12.4992L16.9834 19.4824C17.3148 19.8138 17.7643 20 18.233 20C18.7017 20 19.1512 19.8138 19.4826 19.4824C19.8141 19.151 20.0002 18.7015 20.0002 18.2328C20.0002 17.7641 19.8141 17.3146 19.4826 16.9832L12.4951 10Z" fill="white"/>
</svg>